<svg xmlns="http://www.w3.org/2000/svg" width="34" height="35" fill="none"><path d="M24.933 29.719a.531.531 0 0 0-.531.531v.568a.495.495 0 0 1-.495.494H5.463a.495.495 0 0 1-.494-.494V4.182a.495.495 0 0 1 .494-.495h9.148a.531.531 0 0 0 0-1.062H5.463a1.558 1.558 0 0 0-1.557 1.557v26.636a1.559 1.559 0 0 0 1.557 1.557h18.444a1.559 1.559 0 0 0 1.557-1.557c0-.454.098-1.066-.531-1.1Z" fill="#1B70EF"/><path d="M27.969 16.969h-2.502v-5.616a.54.54 0 0 0-.16-.377L17.11 2.78a.538.538 0 0 0-.908.377v7.172a1.563 1.563 0 0 0 1.556 1.557h6.646v5.084H12.031a2.125 2.125 0 0 0-2.125 2.125v7.437a2.124 2.124 0 0 0 2.125 2.125H27.97a2.128 2.128 0 0 0 2.125-2.125v-7.437a2.128 2.128 0 0 0-2.125-2.125Zm-12.527 6.375h-1.46v2.125a.532.532 0 0 1-1.063 0v-5.313a.533.533 0 0 1 .53-.531h1.993a1.86 1.86 0 0 1 0 3.719Zm6.747 0A2.657 2.657 0 0 1 19.533 26h-1.196a.533.533 0 0 1-.53-.531v-5.313a.533.533 0 0 1 .53-.531h1.196a2.657 2.657 0 0 1 2.656 2.656v1.063Zm4.356-2.657h-2.789v1.594h2.258a.532.532 0 0 1 0 1.063h-2.258v2.125a.532.532 0 0 1-1.062 0v-4.782a1.065 1.065 0 0 1 1.062-1.062h2.79a.531.531 0 0 1 0 1.063Z" fill="#1B70EF"/><path d="M15.442 20.688h-1.46v1.593h1.46a.797.797 0 1 0 0-1.593Zm4.09 0h-.663v4.25h.664a1.599 1.599 0 0 0 1.593-1.594V22.28a1.598 1.598 0 0 0-1.593-1.593Z" fill="#1B70EF"/></svg>