<svg xmlns="http://www.w3.org/2000/svg" width="26" height="18" fill="none"><path d="M10.718 2.496a9.004 9.004 0 0 0-1.217 1.432.58.58 0 0 0 .956.655c.31-.451.665-.869 1.061-1.246a.58.58 0 0 0-.8-.84ZM8.173 11.112a.58.58 0 0 0 .58.446.578.578 0 0 0 .139 0 .58.58 0 0 0 .429-.701 7.826 7.826 0 0 1-.215-1.624.58.58 0 0 0-1.16 0c.01.633.086 1.262.227 1.879ZM8.538 8.056h.104a.58.58 0 0 0 .58-.475c.1-.537.255-1.061.464-1.566a.581.581 0 0 0-1.073-.446 8.999 8.999 0 0 0-.533 1.797.58.58 0 0 0 .458.69ZM23.972 5.639c.236.493.42 1.01.55 1.542a.58.58 0 0 0 1.125-.273 9.055 9.055 0 0 0-.632-1.739.58.58 0 0 0-1.043.499v-.03ZM23.114 4.241a.581.581 0 0 0 .922-.707 8.93 8.93 0 0 0-1.3-1.362.58.58 0 1 0-.753.88c.418.356.797.754 1.13 1.19ZM15.803 1.261h.075a7.903 7.903 0 0 1 1.64-.075.581.581 0 1 0 .088-1.16 9.045 9.045 0 0 0-1.879.052.58.58 0 1 0 .076 1.16v.023ZM12.515 2.427a.58.58 0 0 0 .302-.082 7.91 7.91 0 0 1 1.484-.707.579.579 0 1 0-.394-1.09 9.024 9.024 0 0 0-1.693.812.58.58 0 0 0 .301 1.072v-.005ZM9.779 14.486a.58.58 0 0 0 .921-.702 7.908 7.908 0 0 1-.852-1.397.579.579 0 1 0-1.043.499c.268.565.595 1.102.974 1.6ZM22.296 14.7c-.4.372-.837.7-1.304.98a.58.58 0 0 0 .301 1.073.58.58 0 0 0 .302-.087 9 9 0 0 0 1.49-1.16.58.58 0 0 0-.795-.84l.006.035ZM24.157 12.016c-.21.505-.472.988-.782 1.438a.58.58 0 1 0 .956.655 9.04 9.04 0 0 0 .905-1.664l-.534-.232-.545-.197ZM25.897 8.764a.581.581 0 0 0-1.16.034v.22c0 .473-.042.945-.127 1.41a.58.58 0 0 0 .463.678h.105a.58.58 0 0 0 .58-.476 8.905 8.905 0 0 0 .139-1.611v-.255ZM21.42 1.899a.58.58 0 0 0-.237-.783 9.138 9.138 0 0 0-.829-.394 9.36 9.36 0 0 0-.899-.325.58.58 0 0 0-.33 1.114c.267.071.53.156.788.255.25.104.493.22.725.342a.58.58 0 0 0 .273.07.58.58 0 0 0 .51-.279ZM13.17 15.895a7.83 7.83 0 0 1-1.35-.928.58.58 0 1 0-.754.881c.477.408.996.763 1.548 1.062a.587.587 0 1 0 .58-1.02l-.023.005ZM19.52 16.394a7.865 7.865 0 0 1-1.59.382.583.583 0 0 0-.345 1.017.58.58 0 0 0 .42.143h.076a9.003 9.003 0 0 0 1.827-.44.584.584 0 1 0-.389-1.102ZM16.29 16.84a7.804 7.804 0 0 1-1.606-.302.58.58 0 0 0-.33 1.114c.602.18 1.222.297 1.849.348h.046a.58.58 0 0 0 .046-1.16h-.005Z" fill="#000"/><path d="M10.724 16.724a7.826 7.826 0 1 1 0-15.422.588.588 0 1 0 .197-1.16A8.987 8.987 0 1 0 9.373 18c.519 0 1.037-.045 1.548-.134a.589.589 0 0 0-.197-1.16v.018ZM14.643 16.295a8.986 8.986 0 0 0 1.235-13.48.58.58 0 1 0-.84.8 7.828 7.828 0 0 1-1.079 11.74.58.58 0 1 0 .678.94h.006Z" fill="#000"/></svg>