<svg xmlns="http://www.w3.org/2000/svg" width="18" height="20" fill="none"><path d="M14.69 3.896h-1.812a4.245 4.245 0 0 0-1.37-2.774A4.298 4.298 0 0 0 8.612 0C7.538 0 6.504.4 5.713 1.122a4.244 4.244 0 0 0-1.369 2.774H2.533c-.672 0-1.316.265-1.791.737A2.508 2.508 0 0 0 0 6.413v11.07c0 .668.267 1.308.742 1.78S1.86 20 2.532 20H14.69c.672 0 1.316-.265 1.791-.737a2.508 2.508 0 0 0 .742-1.78V6.414c0-.668-.267-1.308-.742-1.78a2.541 2.541 0 0 0-1.79-.737ZM8.61 1.003a3.298 3.298 0 0 1 2.181.832c.6.533.982 1.267 1.073 2.061H5.357A3.257 3.257 0 0 1 6.43 1.835c.6-.534 1.376-.83 2.181-.832Zm7.598 16.48c0 .401-.16.785-.445 1.068a1.524 1.524 0 0 1-1.074.443H2.533c-.403 0-.79-.16-1.075-.443a1.505 1.505 0 0 1-.445-1.067V6.413c0-.4.16-.785.445-1.068a1.525 1.525 0 0 1 1.075-.442h12.156c.404 0 .79.159 1.075.442.285.283.445.667.445 1.068v11.07Z" fill="#000"/></svg>