<svg xmlns="http://www.w3.org/2000/svg" width="20" height="20" fill="none"><path d="M4.464 3.571h11.072a2.321 2.321 0 0 1 2.318 2.19l.003.132v8.214a2.322 2.322 0 0 1-2.19 2.318l-.131.004H4.464a2.321 2.321 0 0 1-2.318-2.19l-.003-.132V5.893a2.321 2.321 0 0 1 2.19-2.318l.131-.004ZM16.786 7.79l-6.539 3.4a.536.536 0 0 1-.414.034l-.08-.034-6.539-3.4v6.318a1.25 1.25 0 0 0 1.147 1.246l.103.004h11.072a1.25 1.25 0 0 0 1.245-1.148l.005-.102V7.79Zm-1.25-3.146H4.464A1.25 1.25 0 0 0 3.22 5.79l-.005.103v.688L10 10.11l6.786-3.529v-.688a1.25 1.25 0 0 0-1.148-1.246l-.102-.004Z" fill="#fff"/></svg>