<svg xmlns="http://www.w3.org/2000/svg" width="17" height="18" fill="none"><path d="M14.118 3.507h-1.63a3.82 3.82 0 0 0-1.233-2.497 3.868 3.868 0 0 0-5.216 0 3.82 3.82 0 0 0-1.232 2.497h-1.63c-.605 0-1.185.238-1.612.663-.428.425-.668 1-.668 1.601v9.964c0 .601.24 1.177.668 1.602A2.287 2.287 0 0 0 3.176 18h10.942c.604 0 1.184-.239 1.611-.663.428-.425.668-1.001.668-1.602V5.771c0-.6-.24-1.176-.668-1.601a2.287 2.287 0 0 0-1.611-.663ZM8.647.902a2.968 2.968 0 0 1 1.963.75c.54.48.883 1.14.966 1.855H5.718a2.931 2.931 0 0 1 .966-1.856A2.968 2.968 0 0 1 8.647.902Zm6.838 14.833c0 .36-.144.706-.4.961a1.372 1.372 0 0 1-.967.398H3.176c-.362 0-.71-.143-.967-.398-.256-.255-.4-.6-.4-.96V5.77c0-.36.144-.706.4-.96.257-.255.605-.399.967-.399h10.942c.362 0 .71.144.967.398.256.255.4.6.4.961v9.964Z" fill="#000"/></svg>