<svg width="41" height="41" fill="none" xmlns="http://www.w3.org/2000/svg"><g clip-path="url(#a)"><path d="M39.991 11.168 26.12 2.864a2.157 2.157 0 0 0-2.064-.074L1.142 14.371A2.054 2.054 0 0 0 0 16.208v10.01a2.05 2.05 0 0 0 .947 1.725c2.495 1.613 13.482 8.837 14.494 9.494a2.218 2.218 0 0 0 2.207.068l22.296-12.403A2.064 2.064 0 0 0 41 23.311V12.93a2.07 2.07 0 0 0-1.009-1.763ZM16.016 36.282c-1.036-.673-11.875-7.8-14.374-9.415a.772.772 0 0 1-.36-.649v-9.583l14.734 9.102v10.545Zm-.248-19.569a.642.642 0 0 1 .271-.864l6.239-3.258a.64.64 0 0 1 .29-1.22l2.113.055a.64.64 0 0 1 .524.985l-1.107 1.737a.652.652 0 0 1-.884.196.641.641 0 0 1-.288-.646l-6.293 3.287a.655.655 0 0 1-.865-.272Zm23.95 6.598a.78.78 0 0 1-.4.673l-22.021 12.25V25.78l22.422-12.405v9.935Z" fill="#1B70EF"/></g><defs><clipPath id="a"><path fill="#fff" d="M0 0h41v41H0z"/></clipPath></defs></svg>