<svg xmlns="http://www.w3.org/2000/svg" width="24" height="24" fill="none"><g clip-path="url(#a)"><path d="M20.412 3.488A11.822 11.822 0 0 0 11.997 0C5.44 0 .103 5.335.101 11.892c-.001 2.096.547 4.142 1.587 5.945L.001 24l6.306-1.654a11.889 11.889 0 0 0 5.685 1.448h.005c6.556 0 11.894-5.336 11.897-11.892a11.82 11.82 0 0 0-3.482-8.414Zm-8.415 18.297h-.004a9.876 9.876 0 0 1-5.032-1.378l-.362-.214-3.742.981 1-3.647-.236-.374a9.858 9.858 0 0 1-1.512-5.26c.002-5.45 4.438-9.884 9.892-9.884a9.823 9.823 0 0 1 6.99 2.899 9.824 9.824 0 0 1 2.894 6.993c-.002 5.45-4.438 9.884-9.888 9.884Z" fill="#E0E0E0"/><path d="m.547 23.316 1.61-5.88A11.328 11.328 0 0 1 .643 11.76C.645 5.504 5.737.413 11.995.413a11.28 11.28 0 0 1 8.03 3.328 11.277 11.277 0 0 1 3.322 8.03c-.002 6.257-5.095 11.348-11.352 11.348h-.005c-1.9 0-3.767-.477-5.425-1.38L.547 23.315Z" fill="url(#b)"/><path fill-rule="evenodd" clip-rule="evenodd" d="M9.057 6.843c-.22-.49-.451-.499-.66-.507-.172-.008-.368-.007-.564-.007a1.08 1.08 0 0 0-.783.367c-.27.294-1.029 1.005-1.029 2.45 0 1.447 1.053 2.843 1.2 3.04.147.196 2.033 3.257 5.02 4.435 2.481.979 2.986.784 3.525.735.539-.049 1.739-.71 1.984-1.397.244-.686.244-1.274.171-1.397-.073-.122-.27-.196-.563-.343-.294-.146-1.739-.857-2.008-.955-.27-.098-.465-.147-.661.147s-.759.955-.93 1.151c-.172.197-.343.221-.637.074-.294-.147-1.24-.457-2.363-1.458-.874-.779-1.463-1.74-1.635-2.035-.171-.294-.018-.453.13-.6.131-.131.293-.342.44-.514.147-.172.196-.294.294-.49.098-.196.049-.368-.025-.515-.073-.147-.644-1.6-.906-2.18Z" fill="#fff"/><path d="M20.315 3.45A11.687 11.687 0 0 0 11.997.002C5.514.002.239 5.276.237 11.758c-.001 2.072.54 4.094 1.57 5.877l-1.67 6.092 6.235-1.635a11.751 11.751 0 0 0 5.62 1.431h.005c6.48 0 11.757-5.274 11.76-11.756a11.685 11.685 0 0 0-3.442-8.317Zm-8.318 18.088h-.004a9.762 9.762 0 0 1-4.975-1.363l-.357-.211-3.7.97.988-3.606-.233-.37a9.745 9.745 0 0 1-1.494-5.2C2.224 6.371 6.61 1.988 12 1.988a9.711 9.711 0 0 1 6.91 2.865 9.712 9.712 0 0 1 2.86 6.913c-.001 5.388-4.386 9.772-9.773 9.772Z" fill="#fff"/></g><defs><linearGradient id="b" x1="11.947" y1="23.316" x2="11.947" y2=".413" gradientUnits="userSpaceOnUse"><stop stop-color="#20B038"/><stop offset="1" stop-color="#60D66A"/></linearGradient><clipPath id="a"><path fill="#fff" d="M0 0h23.894v24H0z"/></clipPath></defs></svg>