<svg xmlns="http://www.w3.org/2000/svg" width="20" height="14" viewBox="0 0 20 14" fill="none">
  <path d="M18.4545 14H0.636364C0.46759 14 0.305728 13.933 0.186387 13.8136C0.0670452 13.6943 0 13.5324 0 13.3636C0 13.1949 0.0670452 13.033 0.186387 12.9137C0.305728 12.7943 0.46759 12.7273 0.636364 12.7273H18.4545C18.6233 12.7273 18.7852 12.7943 18.9045 12.9137C19.0239 13.033 19.0909 13.1949 19.0909 13.3636C19.0909 13.5324 19.0239 13.6943 18.9045 13.8136C18.7852 13.933 18.6233 14 18.4545 14ZM13.3636 7C13.3636 6.83123 13.2966 6.66936 13.1773 6.55002C13.0579 6.43068 12.896 6.36364 12.7273 6.36364H0.636364C0.46759 6.36364 0.305728 6.43068 0.186387 6.55002C0.0670452 6.66936 0 6.83123 0 7C0 7.16877 0.0670452 7.33064 0.186387 7.44998C0.305728 7.56932 0.46759 7.63636 0.636364 7.63636H12.7273C12.896 7.63636 13.0579 7.56932 13.1773 7.44998C13.2966 7.33064 13.3636 7.16877 13.3636 7ZM19.0909 0.636364C19.0909 0.467589 19.0239 0.305728 18.9045 0.186387C18.7852 0.0670454 18.6233 0 18.4545 0H0.636364C0.46759 0 0.305728 0.0670454 0.186387 0.186387C0.0670452 0.305728 0 0.467589 0 0.636364C0 0.805138 0.0670452 0.966999 0.186387 1.08634C0.305728 1.20568 0.46759 1.27273 0.636364 1.27273H18.4545C18.6233 1.27273 18.7851 1.20573 18.9044 1.08645C19.0237 0.967181 19.0908 0.805401 19.0909 0.636682V0.636364Z" fill="white"/>
</svg>