<svg xmlns="http://www.w3.org/2000/svg" width="34" height="35" viewBox="0 0 34 35" fill="none">
  <path d="M24.9329 29.7188C24.792 29.7188 24.6569 29.7747 24.5573 29.8743C24.4576 29.974 24.4017 30.1091 24.4017 30.25V30.8183C24.4015 30.9493 24.3494 31.0749 24.2567 31.1676C24.1641 31.2602 24.0385 31.3123 23.9075 31.3125H5.46266C5.33166 31.3123 5.20607 31.2602 5.11344 31.1676C5.02081 31.0749 4.96869 30.9493 4.96851 30.8183V4.18166C4.96869 4.05066 5.02081 3.92507 5.11344 3.83244C5.20607 3.73981 5.33166 3.68769 5.46266 3.6875H14.6106C14.7501 3.68525 14.883 3.62828 14.9808 3.5289C15.0786 3.42951 15.1334 3.29567 15.1334 3.15623C15.1334 3.0168 15.0786 2.88296 14.9808 2.78358C14.883 2.6842 14.75 2.62724 14.6106 2.625H5.46266C5.04995 2.62546 4.65428 2.78962 4.36245 3.08145C4.07062 3.37328 3.90647 3.76895 3.90601 4.18166V30.8183C3.90647 31.2311 4.07062 31.6267 4.36245 31.9186C4.65428 32.2104 5.04995 32.3745 5.46266 32.375H23.9075C24.3202 32.3745 24.7159 32.2104 25.0077 31.9186C25.2996 31.6267 25.4637 31.2311 25.4642 30.8183C25.4636 30.364 25.5616 29.7521 24.9329 29.7188Z" fill="#1B70EF"/>
  <path d="M27.969 16.9687H25.4668V11.3534C25.4652 11.2116 25.408 11.0762 25.3074 10.9762L17.1102 2.77904C17.0347 2.7074 16.94 2.65921 16.8376 2.6403C16.7353 2.62139 16.6296 2.63258 16.5335 2.6725C16.4373 2.71243 16.3548 2.77938 16.2959 2.86524C16.2371 2.9511 16.2044 3.05219 16.2018 3.15627V10.3281C16.2033 10.7405 16.3678 11.1355 16.6593 11.4271C16.9509 11.7187 17.346 11.8832 17.7584 11.8847H24.4043V16.9687H12.0315C11.7524 16.9686 11.4761 17.0236 11.2182 17.1303C10.9603 17.2371 10.7261 17.3936 10.5287 17.5909C10.3314 17.7883 10.1749 18.0226 10.0681 18.2804C9.96133 18.5383 9.90642 18.8146 9.90649 19.0937V26.5312C9.90642 26.8103 9.96133 27.0867 10.0681 27.3445C10.1749 27.6024 10.3314 27.8367 10.5287 28.034C10.7261 28.2313 10.9604 28.3879 11.2182 28.4946C11.4761 28.6014 11.7524 28.6563 12.0315 28.6562H27.969C28.5323 28.6555 29.0724 28.4313 29.4708 28.033C29.8691 27.6346 30.0932 27.0946 30.094 26.5312V19.0937C30.0932 18.5304 29.8691 17.9903 29.4708 17.5919C29.0724 17.1936 28.5323 16.9695 27.969 16.9687ZM15.4421 23.3437H13.9812V25.4687C13.979 25.6082 13.9221 25.7412 13.8227 25.8391C13.7233 25.9369 13.5894 25.9918 13.4499 25.9918C13.3104 25.9918 13.1765 25.9369 13.0771 25.8391C12.9778 25.7412 12.9208 25.6082 12.9187 25.4687V20.1562C12.9191 20.0155 12.9752 19.8806 13.0747 19.781C13.1743 19.6815 13.3092 19.6254 13.4499 19.625H15.4421C15.9316 19.6305 16.3993 19.8288 16.7435 20.1769C17.0877 20.525 17.2808 20.9948 17.2808 21.4844C17.2808 21.9739 17.0877 22.4437 16.7435 22.7918C16.3992 23.1399 15.9316 23.3382 15.4421 23.3437ZM22.189 23.3437C22.1887 24.0481 21.9088 24.7236 21.4107 25.2217C20.9126 25.7198 20.2371 25.9997 19.5327 26H18.3374C18.1967 25.9996 18.0618 25.9435 17.9622 25.8439C17.8627 25.7444 17.8066 25.6095 17.8062 25.4687V20.1562C17.8066 20.0155 17.8627 19.8806 17.9622 19.781C18.0618 19.6815 18.1967 19.6254 18.3374 19.625H19.5327C20.2371 19.6252 20.9126 19.9052 21.4107 20.4033C21.9088 20.9013 22.1887 21.5768 22.189 22.2812V23.3437ZM26.5452 20.6875H23.7562V22.2812H26.014C26.1535 22.2833 26.2866 22.3402 26.3846 22.4396C26.4825 22.539 26.5374 22.6729 26.5374 22.8125C26.5374 22.952 26.4825 23.086 26.3846 23.1854C26.2866 23.2848 26.1535 23.3417 26.014 23.3437H23.7562V25.4687C23.754 25.6082 23.6971 25.7412 23.5977 25.8391C23.4983 25.9369 23.3644 25.9918 23.2249 25.9918C23.0854 25.9918 22.9515 25.9369 22.8521 25.8391C22.7527 25.7412 22.6958 25.6082 22.6937 25.4687V20.6875C22.6945 20.4059 22.8067 20.1362 23.0058 19.9371C23.2048 19.738 23.4746 19.6258 23.7562 19.625H26.5452C26.6843 19.6278 26.8167 19.6849 26.9141 19.7843C27.0114 19.8836 27.066 20.0171 27.066 20.1562C27.066 20.2953 27.0114 20.4288 26.9141 20.5282C26.8167 20.6275 26.6843 20.6847 26.5452 20.6875Z" fill="#1B70EF"/>
  <path d="M15.4421 20.6875H13.9812V22.2812H15.4421C15.6535 22.2812 15.8562 22.1973 16.0056 22.0479C16.1551 21.8984 16.239 21.6957 16.239 21.4844C16.239 21.273 16.1551 21.0703 16.0056 20.9209C15.8562 20.7715 15.6535 20.6875 15.4421 20.6875ZM19.5328 20.6875H18.8687V24.9375H19.5328C19.9551 24.9363 20.3597 24.7679 20.6584 24.4693C20.957 24.1707 21.1253 23.7661 21.1265 23.3438V22.2812C21.1253 21.8589 20.957 21.4543 20.6584 21.1557C20.3597 20.857 19.9551 20.6887 19.5328 20.6875Z" fill="#1B70EF"/>
</svg>