<svg xmlns="http://www.w3.org/2000/svg" width="26" height="18" viewBox="0 0 26 18" fill="none">
  <path d="M10.7181 2.4962C10.2634 2.92977 9.8553 3.40973 9.50053 3.92826C9.41589 4.05516 9.38466 4.2103 9.41363 4.36006C9.44259 4.50982 9.52941 4.64214 9.65526 4.72833C9.78111 4.81452 9.93586 4.84764 10.086 4.82051C10.2361 4.79339 10.3694 4.7082 10.4572 4.58341C10.7661 4.13178 11.1217 3.71396 11.5182 3.33688C11.5734 3.28435 11.6177 3.22145 11.6486 3.15179C11.6795 3.08213 11.6963 3.00707 11.6982 2.93089C11.7001 2.85471 11.687 2.7789 11.6596 2.7078C11.6321 2.6367 11.591 2.57169 11.5385 2.51649C11.4859 2.46129 11.423 2.41698 11.3534 2.38608C11.2837 2.35519 11.2086 2.33832 11.1325 2.33644C11.0563 2.33455 10.9805 2.34769 10.9094 2.3751C10.8383 2.40251 10.7733 2.44366 10.7181 2.4962Z" fill="black"/>
  <path d="M8.17289 11.1117C8.2035 11.2415 8.27786 11.3567 8.38346 11.438C8.48906 11.5193 8.61944 11.5617 8.75267 11.5582C8.79889 11.5638 8.84561 11.5638 8.89182 11.5582C8.96617 11.5405 9.03629 11.5083 9.09814 11.4634C9.15999 11.4185 9.21236 11.3618 9.25223 11.2966C9.29211 11.2314 9.3187 11.159 9.33047 11.0835C9.34225 11.008 9.33898 10.9309 9.32086 10.8566C9.19279 10.3245 9.12089 9.7804 9.10634 9.23325C9.10634 9.07949 9.04526 8.93202 8.93653 8.82329C8.8278 8.71456 8.68033 8.65347 8.52656 8.65347C8.37279 8.65347 8.22532 8.71456 8.11659 8.82329C8.00786 8.93202 7.94678 9.07949 7.94678 9.23325C7.95575 9.86564 8.03155 10.4953 8.17289 11.1117Z" fill="black"/>
  <path d="M8.53807 8.05629H8.64243C8.77972 8.05853 8.91334 8.01198 9.01952 7.92491C9.12569 7.83785 9.19752 7.71594 9.22221 7.58087C9.32203 7.04437 9.47748 6.51974 9.68604 6.01546C9.71535 5.94503 9.73051 5.86952 9.73064 5.79324C9.73077 5.71695 9.71587 5.64139 9.6868 5.57086C9.65773 5.50034 9.61505 5.43623 9.5612 5.38219C9.50735 5.32816 9.44339 5.28526 9.37296 5.25595C9.30253 5.22664 9.22702 5.21148 9.15073 5.21135C9.07445 5.21122 8.99889 5.22612 8.92836 5.25519C8.85783 5.28426 8.79372 5.32694 8.73969 5.38079C8.68566 5.43464 8.64276 5.4986 8.61344 5.56903C8.37355 6.14793 8.19478 6.75031 8.08005 7.36635C8.06402 7.44179 8.0632 7.51966 8.07763 7.59542C8.09207 7.67117 8.12148 7.74328 8.16413 7.80753C8.20679 7.87178 8.26183 7.92688 8.32604 7.96959C8.39025 8.01231 8.46233 8.04178 8.53807 8.05629Z" fill="black"/>
  <path d="M23.9718 5.63861C24.2083 6.1322 24.3929 6.64905 24.5226 7.18083C24.5662 7.32176 24.6618 7.44077 24.7901 7.51363C24.9184 7.58649 25.0696 7.60772 25.213 7.57298C25.3563 7.53825 25.4811 7.45017 25.5618 7.32668C25.6425 7.20319 25.6731 7.05359 25.6473 6.90833C25.4966 6.30849 25.2849 5.72567 25.0154 5.16899C24.9429 5.04156 24.8248 4.94632 24.6849 4.90245C24.5451 4.85857 24.3938 4.86931 24.2615 4.93251C24.1292 4.99571 24.0258 5.10668 23.972 5.24307C23.9183 5.37946 23.9182 5.53114 23.9718 5.6676V5.63861Z" fill="black"/>
  <path d="M23.1138 4.24132C23.1602 4.30184 23.2182 4.35263 23.2842 4.39078C23.3503 4.42893 23.4232 4.45369 23.4989 4.46365C23.5745 4.47361 23.6514 4.46858 23.7251 4.44883C23.7988 4.42909 23.8679 4.39502 23.9284 4.34857C23.9889 4.30213 24.0397 4.24422 24.0779 4.17815C24.116 4.11207 24.1408 4.03913 24.1507 3.96349C24.1607 3.88785 24.1557 3.81099 24.1359 3.73729C24.1162 3.6636 24.0821 3.59451 24.0357 3.53398C23.652 3.03533 23.2166 2.57863 22.7369 2.1715C22.6201 2.07155 22.4683 2.02212 22.315 2.03408C22.1617 2.04604 22.0194 2.11841 21.9195 2.23527C21.8195 2.35214 21.7701 2.50392 21.782 2.65723C21.794 2.81054 21.8664 2.95281 21.9832 3.05276C22.4008 3.4081 22.7798 3.80649 23.1138 4.24132Z" fill="black"/>
  <path d="M15.8028 1.26125H15.8781C16.421 1.1792 16.9709 1.15394 17.5189 1.18588C17.5951 1.19159 17.6716 1.18225 17.7441 1.15839C17.8166 1.13453 17.8838 1.09661 17.9416 1.04681C17.9995 0.997013 18.047 0.936302 18.0814 0.868144C18.1158 0.799987 18.1365 0.72572 18.1422 0.649582C18.1479 0.573444 18.1386 0.496927 18.1147 0.424399C18.0908 0.351872 18.0529 0.284754 18.0031 0.226878C17.9533 0.169003 17.8926 0.121503 17.8245 0.0870906C17.7563 0.0526782 17.682 0.0320273 17.6059 0.0263169C16.9796 -0.0215631 16.3501 -0.00407525 15.7274 0.0784972C15.5736 0.0884921 15.4301 0.159162 15.3285 0.274959C15.2268 0.390757 15.1753 0.542197 15.1853 0.695964C15.1953 0.849732 15.266 0.993231 15.3818 1.09489C15.4976 1.19656 15.649 1.24805 15.8028 1.23806V1.26125Z" fill="black"/>
  <path d="M12.5153 2.42662C12.6214 2.42764 12.7256 2.39957 12.8168 2.34545C13.2856 2.05875 13.7831 1.82169 14.301 1.63812C14.3747 1.61383 14.4427 1.57502 14.501 1.52399C14.5594 1.47296 14.6069 1.41074 14.6408 1.34103C14.6747 1.27131 14.6942 1.1955 14.6983 1.11809C14.7024 1.04068 14.6909 0.96324 14.6646 0.890343C14.6382 0.817447 14.5975 0.750579 14.5448 0.693692C14.4922 0.636806 14.4286 0.591057 14.358 0.559152C14.2873 0.527247 14.211 0.509833 14.1335 0.50794C14.056 0.506047 13.9789 0.519713 13.9068 0.548131C13.3158 0.759078 12.7484 1.03112 12.2138 1.35983C12.1069 1.42606 12.0245 1.52526 11.9789 1.64245C11.9333 1.75964 11.9271 1.88848 11.9611 2.00954C11.9951 2.1306 12.0676 2.23731 12.1675 2.31359C12.2675 2.38986 12.3896 2.43157 12.5153 2.43242V2.42662Z" fill="black"/>
  <path d="M9.77862 14.4861C9.87422 14.6008 10.0104 14.6742 10.1588 14.691C10.3072 14.7078 10.4563 14.6667 10.5752 14.5763C10.694 14.4859 10.7733 14.3531 10.7967 14.2056C10.82 14.0581 10.7856 13.9072 10.7005 13.7845C10.3688 13.3495 10.0832 12.8812 9.84819 12.3873C9.81909 12.3131 9.77502 12.2458 9.71875 12.1895C9.66248 12.1331 9.59521 12.089 9.52113 12.0598C9.44705 12.0306 9.36775 12.017 9.28817 12.0198C9.20859 12.0226 9.13044 12.0417 9.0586 12.0761C8.98675 12.1104 8.92274 12.1592 8.87057 12.2193C8.81839 12.2795 8.77917 12.3497 8.75534 12.4257C8.7315 12.5017 8.72358 12.5817 8.73205 12.6609C8.74053 12.7401 8.76522 12.8167 8.80459 12.8859C9.07319 13.4514 9.3996 13.9877 9.77862 14.4861Z" fill="black"/>
  <path d="M22.2962 14.7006C21.8966 15.0717 21.4594 15.4001 20.9917 15.6804C20.8848 15.7467 20.8023 15.8459 20.7567 15.9631C20.7111 16.0802 20.7049 16.2091 20.7389 16.3301C20.7729 16.4512 20.8454 16.5579 20.9454 16.6342C21.0453 16.7105 21.1674 16.7522 21.2932 16.753C21.3997 16.7523 21.5041 16.7222 21.5946 16.6661C22.1306 16.3329 22.63 15.9442 23.0847 15.5065C23.1837 15.3984 23.2382 15.2569 23.237 15.1103C23.2359 14.9638 23.1794 14.8231 23.0787 14.7165C22.9781 14.61 22.8408 14.5456 22.6945 14.5361C22.5483 14.5267 22.4039 14.5731 22.2904 14.6658L22.2962 14.7006Z" fill="black"/>
  <path d="M24.1572 12.0162C23.9473 12.5215 23.685 13.0035 23.3745 13.4541C23.3304 13.5168 23.2992 13.5877 23.2826 13.6627C23.2661 13.7376 23.2646 13.8151 23.2783 13.8906C23.2919 13.9661 23.3204 14.0382 23.3621 14.1026C23.4038 14.167 23.4579 14.2225 23.5212 14.2659C23.5845 14.3092 23.6558 14.3396 23.731 14.3552C23.8061 14.3708 23.8836 14.3713 23.9589 14.3567C24.0343 14.3422 24.1059 14.3128 24.1698 14.2703C24.2337 14.2278 24.2886 14.1731 24.3312 14.1092C24.6901 13.5878 24.9932 13.03 25.2356 12.4452L24.7022 12.2133L24.1572 12.0162Z" fill="black"/>
  <path d="M25.8967 8.76364C25.8944 8.6875 25.8771 8.61256 25.8459 8.54309C25.8146 8.47362 25.77 8.41099 25.7146 8.35876C25.6591 8.30654 25.5939 8.26575 25.5227 8.23873C25.4515 8.2117 25.3756 8.19897 25.2995 8.20125C25.2234 8.20353 25.1484 8.22079 25.079 8.25204C25.0095 8.28329 24.9469 8.32791 24.8946 8.38336C24.8424 8.43882 24.8016 8.50401 24.7746 8.57523C24.7476 8.64644 24.7348 8.72229 24.7371 8.79842C24.7371 8.8738 24.7371 8.94337 24.7371 9.01874C24.7375 9.49127 24.6948 9.96284 24.6096 10.4276C24.5953 10.5026 24.596 10.5797 24.6116 10.6545C24.6272 10.7292 24.6575 10.8001 24.7006 10.8631C24.7436 10.9262 24.7988 10.9801 24.8628 11.0217C24.9267 11.0634 24.9983 11.092 25.0734 11.106H25.1778C25.315 11.1082 25.4487 11.0616 25.5548 10.9746C25.661 10.8875 25.7328 10.7656 25.7575 10.6305C25.8527 10.0986 25.8993 9.55911 25.8967 9.01874C25.8967 8.93177 25.8967 8.8506 25.8967 8.76364Z" fill="black"/>
  <path d="M21.4208 1.89901C21.4927 1.76362 21.508 1.60527 21.4635 1.45859C21.4189 1.31191 21.3181 1.18884 21.1831 1.11631C20.9135 0.97108 20.6368 0.839497 20.354 0.722055C20.0601 0.598587 19.7602 0.49022 19.4553 0.397378C19.3077 0.353554 19.1487 0.370166 19.0133 0.443559C18.878 0.516952 18.7773 0.641113 18.7335 0.78873C18.6897 0.936347 18.7063 1.09533 18.7797 1.2307C18.8531 1.36606 18.9772 1.46673 19.1248 1.51056C19.3919 1.58195 19.6551 1.6671 19.9133 1.76566C20.1626 1.87002 20.4062 1.98598 20.6381 2.10773C20.7218 2.15294 20.8154 2.17683 20.9106 2.17731C21.0126 2.17992 21.1135 2.15557 21.2031 2.1067C21.2926 2.05784 21.3677 1.9862 21.4208 1.89901Z" fill="black"/>
  <path d="M13.1706 15.8949C12.6891 15.6338 12.2363 15.3229 11.8197 14.9673C11.7028 14.8673 11.5511 14.8179 11.3978 14.8299C11.2444 14.8418 11.1022 14.9142 11.0022 15.031C10.9023 15.1479 10.8528 15.2997 10.8648 15.453C10.8768 15.6063 10.9491 15.7486 11.066 15.8485C11.5431 16.2558 12.062 16.6115 12.614 16.9095C12.7493 16.9864 12.9096 17.0064 13.0597 16.9651C13.2097 16.9238 13.3372 16.8245 13.4141 16.6892C13.491 16.5539 13.511 16.3936 13.4697 16.2435C13.4283 16.0935 13.3291 15.966 13.1938 15.8891L13.1706 15.8949Z" fill="black"/>
  <path d="M19.5191 16.3936C19.0043 16.5759 18.4719 16.7042 17.9305 16.7762C17.8544 16.7812 17.78 16.8011 17.7115 16.8348C17.6431 16.8685 17.5819 16.9153 17.5316 16.9727C17.4813 17.03 17.4427 17.0967 17.4181 17.1689C17.3936 17.2412 17.3835 17.3175 17.3884 17.3937C17.3934 17.4698 17.4133 17.5442 17.447 17.6127C17.4807 17.6811 17.5276 17.7423 17.5849 17.7926C17.6422 17.843 17.7089 17.8815 17.7812 17.9061C17.8534 17.9306 17.9298 17.9407 18.0059 17.9358H18.0813C18.7037 17.853 19.3159 17.7053 19.9076 17.4951C20.0537 17.4436 20.1733 17.3362 20.2402 17.1965C20.307 17.0568 20.3157 16.8962 20.2641 16.7501C20.2126 16.604 20.1052 16.4844 19.9655 16.4175C19.8258 16.3507 19.6652 16.3421 19.5191 16.3936Z" fill="black"/>
  <path d="M16.2896 16.84C15.7452 16.796 15.2069 16.6949 14.6836 16.5385C14.536 16.4947 14.377 16.5113 14.2416 16.5847C14.1062 16.6581 14.0056 16.7822 13.9618 16.9299C13.9179 17.0775 13.9345 17.2365 14.0079 17.3718C14.0813 17.5072 14.2055 17.6079 14.3531 17.6517C14.9557 17.8321 15.5756 17.9487 16.2026 17.9996H16.249C16.4028 18.0057 16.5527 17.9505 16.6658 17.8461C16.7788 17.7418 16.8458 17.5967 16.852 17.443C16.8581 17.2892 16.8029 17.1393 16.6985 17.0262C16.5942 16.9131 16.4491 16.8461 16.2954 16.84H16.2896Z" fill="black"/>
  <path d="M10.7238 16.724C9.65558 16.91 8.56038 16.8719 7.50763 16.6123C6.45489 16.3528 5.46756 15.8773 4.60824 15.216C3.74893 14.5548 3.03637 13.7222 2.51576 12.7711C1.99514 11.82 1.67781 10.7711 1.5839 9.69086C1.48999 8.61065 1.62153 7.52271 1.9702 6.49602C2.31887 5.46933 2.87705 4.52628 3.60935 3.72666C4.34166 2.92704 5.23212 2.2883 6.22427 1.85092C7.21642 1.41354 8.28863 1.18708 9.37291 1.18588C9.8257 1.18565 10.2777 1.22445 10.7238 1.30184C10.8776 1.32798 11.0354 1.29197 11.1626 1.20172C11.2898 1.11148 11.376 0.97439 11.4021 0.820623C11.4283 0.666855 11.3923 0.509001 11.302 0.381787C11.2118 0.254573 11.0747 0.168419 10.9209 0.142279C9.70077 -0.0550277 8.45303 0.00148566 7.25571 0.308286C6.05839 0.615087 4.93723 1.16558 3.96232 1.92535C2.9874 2.68511 2.1797 3.63782 1.5897 4.72392C0.999696 5.81001 0.640081 7.00614 0.533334 8.23752C0.426587 9.46891 0.575004 10.7091 0.969306 11.8805C1.36361 13.0519 1.99532 14.1294 2.82494 15.0456C3.65457 15.9618 4.66427 16.697 5.79094 17.2053C6.9176 17.7136 8.137 17.9839 9.37291 17.9995C9.89178 17.9995 10.4097 17.9549 10.9209 17.8662C10.9971 17.8532 11.0699 17.8254 11.1353 17.7843C11.2007 17.7432 11.2573 17.6897 11.302 17.6267C11.3467 17.5637 11.3785 17.4925 11.3957 17.4172C11.4129 17.3419 11.4151 17.264 11.4021 17.1878C11.3892 17.1117 11.3614 17.0389 11.3203 16.9735C11.2792 16.9081 11.2256 16.8514 11.1626 16.8067C11.0996 16.7621 11.0285 16.7302 10.9532 16.713C10.8779 16.6959 10.7999 16.6937 10.7238 16.7066V16.724Z" fill="black"/>
  <path d="M14.6432 16.295C15.6818 15.5431 16.5475 14.5777 17.1821 13.4635C17.8167 12.3494 18.2056 11.1124 18.3225 9.83554C18.4395 8.55869 18.2819 7.2716 17.8603 6.0607C17.4387 4.84981 16.7628 3.74316 15.8781 2.81507C15.8256 2.75987 15.7627 2.71556 15.6931 2.68467C15.6234 2.65377 15.5483 2.6369 15.4721 2.63502C15.3183 2.63121 15.1692 2.68868 15.0577 2.79478C14.9463 2.90088 14.8815 3.04692 14.8777 3.20077C14.8739 3.35463 14.9314 3.50369 15.0375 3.61517C15.8078 4.42369 16.3963 5.38771 16.7633 6.44247C17.1303 7.49723 17.2673 8.61831 17.1651 9.73041C17.063 10.8425 16.724 11.9199 16.171 12.8901C15.6181 13.8604 14.8638 14.7011 13.9591 15.3557C13.8939 15.3989 13.8381 15.4547 13.7951 15.5199C13.7521 15.5851 13.7226 15.6584 13.7086 15.7352C13.6946 15.8121 13.6963 15.891 13.7135 15.9672C13.7308 16.0434 13.7632 16.1154 13.809 16.1787C13.8547 16.2421 13.9128 16.2955 13.9797 16.3358C14.0467 16.3762 14.121 16.4026 14.1984 16.4134C14.2758 16.4243 14.3546 16.4194 14.43 16.399C14.5054 16.3787 14.576 16.3433 14.6374 16.295H14.6432Z" fill="black"/>
</svg>