<svg xmlns="http://www.w3.org/2000/svg" width="18" height="20" viewBox="0 0 18 20" fill="none">
  <path d="M14.6895 3.8963H12.8782C12.7878 2.83374 12.2991 1.84363 11.5089 1.12204C10.7186 0.400446 9.68444 0 8.61111 0C7.53778 0 6.50359 0.400446 5.71333 1.12204C4.92308 1.84363 4.43439 2.83374 4.34405 3.8963H2.53268C1.86097 3.8963 1.21677 4.1614 0.741805 4.63328C0.266835 5.10516 0 5.74517 0 6.41251L0 17.4838C0 18.1511 0.266835 18.7911 0.741805 19.263C1.21677 19.7349 1.86097 20 2.53268 20H14.6895C15.3613 20 16.0054 19.7349 16.4804 19.263C16.9554 18.7911 17.2222 18.1511 17.2222 17.4838V6.41251C17.2222 5.74517 16.9554 5.10516 16.4804 4.63328C16.0054 4.1614 15.3613 3.8963 14.6895 3.8963ZM8.61111 1.00267C9.41614 1.00515 10.1922 1.30119 10.7921 1.83461C11.3919 2.36802 11.7738 3.10167 11.8651 3.8963H5.35712C5.44847 3.10167 5.83031 2.36802 6.43015 1.83461C7.02999 1.30119 7.80608 1.00515 8.61111 1.00267ZM16.2092 17.4838C16.2092 17.8842 16.049 18.2682 15.7641 18.5513C15.4791 18.8345 15.0926 18.9935 14.6895 18.9935H2.53268C2.12965 18.9935 1.74314 18.8345 1.45815 18.5513C1.17317 18.2682 1.01307 17.8842 1.01307 17.4838V6.41251C1.01307 6.0121 1.17317 5.6281 1.45815 5.34497C1.74314 5.06184 2.12965 4.90278 2.53268 4.90278H14.6895C15.0926 4.90278 15.4791 5.06184 15.7641 5.34497C16.049 5.6281 16.2092 6.0121 16.2092 6.41251V17.4838Z" fill="black"/>
</svg>