<svg xmlns="http://www.w3.org/2000/svg" width="21" height="20" viewBox="0 0 21 20" fill="none">
  <path d="M10.1579 18.8535C7.98498 17.5157 5.96553 15.9433 4.13595 14.1645C2.84589 12.8787 1.86575 11.3158 1.26995 9.59452C0.193948 6.24952 1.44995 2.42052 4.96795 1.28752C5.87924 0.994196 6.84765 0.924021 7.79171 1.0829C8.73577 1.24178 9.62787 1.62507 10.3929 2.20052C11.1584 1.62575 12.0504 1.24288 12.9944 1.08402C13.9383 0.925163 14.9066 0.994947 15.8179 1.28752C19.3349 2.42052 20.6009 6.24952 19.5249 9.59452C18.9291 11.3158 17.949 12.8787 16.6589 14.1645C14.8294 15.9433 12.8099 17.5157 10.6369 18.8535L10.4019 18.9995L10.1579 18.8535Z" stroke="#200E32" stroke-linecap="round" stroke-linejoin="round"/>
</svg>