<svg xmlns="http://www.w3.org/2000/svg" width="20" height="20" viewBox="0 0 20 20" fill="none">
  <path d="M4.46425 3.57144H15.5357C16.1286 3.5714 16.6991 3.79827 17.1301 4.20549C17.5611 4.61272 17.82 5.16944 17.8535 5.76144L17.8571 5.89287V14.1072C17.8571 14.7001 17.6303 15.2706 17.2231 15.7016C16.8158 16.1326 16.2591 16.3914 15.6671 16.425L15.5357 16.4286H4.46425C3.8713 16.4286 3.3008 16.2018 2.8698 15.7945C2.4388 15.3873 2.17996 14.8306 2.14639 14.2386L2.14282 14.1072V5.89287C2.14278 5.29991 2.36965 4.72942 2.77687 4.29842C3.1841 3.86742 3.74082 3.60858 4.33282 3.57501L4.46425 3.57144ZM16.7857 7.7893L10.2471 11.1893C10.1838 11.2222 10.1145 11.2421 10.0434 11.2479C9.97221 11.2537 9.90063 11.2452 9.83282 11.2229L9.75282 11.1893L3.21425 7.7893V14.1072C3.21426 14.4209 3.33223 14.7231 3.54474 14.9539C3.75724 15.1846 4.04875 15.3271 4.36139 15.3529L4.46425 15.3572H15.5357C15.8495 15.3571 16.1518 15.2391 16.3826 15.0264C16.6134 14.8138 16.7557 14.5221 16.7814 14.2093L16.7857 14.1072V7.7893ZM15.5357 4.64287H4.46425C4.15054 4.64288 3.84831 4.76085 3.61754 4.97336C3.38678 5.18586 3.24435 5.47737 3.21854 5.79001L3.21425 5.89287V6.58144L9.99997 10.11L16.7857 6.58144V5.89287C16.7857 5.57905 16.6676 5.27672 16.4549 5.04594C16.2423 4.81515 15.9506 4.6728 15.6378 4.64716L15.5357 4.64287Z" fill="white"/>
</svg>