<svg xmlns="http://www.w3.org/2000/svg" width="24" height="24" viewBox="0 0 24 24" fill="none">
  <path d="M5.25 6.75H18.75C18.9489 6.75 19.1397 6.67098 19.2803 6.53033C19.421 6.38968 19.5 6.19891 19.5 6C19.5 5.80109 19.421 5.61032 19.2803 5.46967C19.1397 5.32902 18.9489 5.25 18.75 5.25H5.25C5.05109 5.25 4.86032 5.32902 4.71967 5.46967C4.57902 5.61032 4.5 5.80109 4.5 6C4.5 6.19891 4.57902 6.38968 4.71967 6.53033C4.86032 6.67098 5.05109 6.75 5.25 6.75ZM5.25 12.75H18.75C18.9489 12.75 19.1397 12.671 19.2803 12.5303C19.421 12.3897 19.5 12.1989 19.5 12C19.5 11.8011 19.421 11.6103 19.2803 11.4697C19.1397 11.329 18.9489 11.25 18.75 11.25H5.25C5.05109 11.25 4.86032 11.329 4.71967 11.4697C4.57902 11.6103 4.5 11.8011 4.5 12C4.5 12.1989 4.57902 12.3897 4.71967 12.5303C4.86032 12.671 5.05109 12.75 5.25 12.75ZM5.25 18.75H18.75C18.9489 18.75 19.1397 18.671 19.2803 18.5303C19.421 18.3897 19.5 18.1989 19.5 18C19.5 17.8011 19.421 17.6103 19.2803 17.4697C19.1397 17.329 18.9489 17.25 18.75 17.25H5.25C5.05109 17.25 4.86032 17.329 4.71967 17.4697C4.57902 17.6103 4.5 17.8011 4.5 18C4.5 18.1989 4.57902 18.3897 4.71967 18.5303C4.86032 18.671 5.05109 18.75 5.25 18.75Z" fill="black"/>
</svg>