<svg xmlns="http://www.w3.org/2000/svg" width="17" height="18" viewBox="0 0 17 18" fill="none">
  <path d="M14.1176 3.50667H12.4873C12.406 2.55037 11.9662 1.65926 11.255 1.00983C10.5437 0.360401 9.61297 0 8.64697 0C7.68098 0 6.7502 0.360401 6.03897 1.00983C5.32774 1.65926 4.88793 2.55037 4.80662 3.50667H3.17638C2.57185 3.50667 1.99207 3.74526 1.5646 4.16995C1.13712 4.59464 0.896973 5.17065 0.896973 5.77125L0.896973 15.7354C0.896973 16.336 1.13712 16.912 1.5646 17.3367C1.99207 17.7614 2.57185 18 3.17638 18H14.1176C14.7221 18 15.3019 17.7614 15.7293 17.3367C16.1568 16.912 16.397 16.336 16.397 15.7354V5.77125C16.397 5.17065 16.1568 4.59464 15.7293 4.16995C15.3019 3.74526 14.7221 3.50667 14.1176 3.50667ZM8.64697 0.902402C9.3715 0.904633 10.07 1.17107 10.6098 1.65115C11.1497 2.13122 11.4933 2.7915 11.5756 3.50667H5.71838C5.8006 2.7915 6.14425 2.13122 6.6841 1.65115C7.22396 1.17107 7.92245 0.904633 8.64697 0.902402ZM15.4852 15.7354C15.4852 16.0958 15.3411 16.4414 15.0846 16.6962C14.8281 16.951 14.4803 17.0942 14.1176 17.0942H3.17638C2.81366 17.0942 2.4658 16.951 2.20931 16.6962C1.95283 16.4414 1.80874 16.0958 1.80874 15.7354V5.77125C1.80874 5.41089 1.95283 5.06529 2.20931 4.81047C2.4658 4.55566 2.81366 4.4125 3.17638 4.4125H14.1176C14.4803 4.4125 14.8281 4.55566 15.0846 4.81047C15.3411 5.06529 15.4852 5.41089 15.4852 5.77125V15.7354Z" fill="black"/>
</svg>