<svg width="41" height="41" viewBox="0 0 41 41" fill="none" xmlns="http://www.w3.org/2000/svg">
<g clip-path="url(#clip0_53_294)">
<path d="M39.991 11.1683L26.1199 2.86357C25.8095 2.67972 25.458 2.57668 25.0975 2.56386C24.737 2.55105 24.3791 2.62887 24.0564 2.79021L1.14159 14.3714C0.799347 14.5411 0.511195 14.8028 0.309526 15.1272C0.107857 15.4516 0.000665933 15.8258 0 16.2078L0 26.2185C0.000462393 26.5623 0.0873978 26.9004 0.252803 27.2018C0.418209 27.5032 0.656769 27.7581 0.946523 27.9431C3.44176 29.5558 14.4285 36.7799 15.4407 37.4368C15.7706 37.6401 16.1481 37.7533 16.5354 37.7653C16.9228 37.7772 17.3065 37.6873 17.6483 37.5047L39.9436 25.1022C40.2625 24.9238 40.5283 24.664 40.7139 24.3492C40.8995 24.0345 40.9982 23.6761 41 23.3107V12.9316C40.9976 12.5758 40.9034 12.2266 40.7267 11.9177C40.5499 11.6088 40.2966 11.3507 39.991 11.1683ZM16.0156 36.2821C14.9801 35.6091 4.14132 28.4825 1.64192 26.8668C1.53226 26.7977 1.44174 26.7021 1.37872 26.5888C1.31569 26.4755 1.28217 26.3482 1.28125 26.2185V16.6348L16.0156 25.7371V36.2821ZM15.768 16.7132C15.7291 16.6387 15.7052 16.5571 15.6977 16.4733C15.6903 16.3895 15.6994 16.3051 15.7246 16.2248C15.7498 16.1445 15.7906 16.07 15.8446 16.0054C15.8986 15.9409 15.9647 15.8877 16.0393 15.8487L22.2777 12.5905C22.1447 12.5279 22.0373 12.4214 21.9735 12.2889C21.9097 12.1565 21.8934 12.0061 21.9274 11.8631C21.9614 11.72 22.0436 11.593 22.1602 11.5034C22.2768 11.4139 22.4206 11.3671 22.5676 11.3711L24.681 11.4262C24.7945 11.4291 24.9051 11.462 25.0016 11.5217C25.0981 11.5814 25.177 11.6656 25.2303 11.7658C25.2836 11.866 25.3093 11.9785 25.3048 12.0919C25.3003 12.2053 25.2658 12.3155 25.2048 12.4111L24.0984 14.1479C24.0053 14.2889 23.8609 14.3883 23.6959 14.4249C23.5309 14.4615 23.3581 14.4326 23.214 14.3442C23.1079 14.2766 23.024 14.1792 22.9728 14.0642C22.9217 13.9492 22.9055 13.8216 22.9264 13.6975L16.6325 16.9849C16.4812 17.0598 16.3068 17.0734 16.1457 17.0228C15.9846 16.9722 15.8493 16.8613 15.768 16.7132ZM39.7188 23.311C39.7172 23.4486 39.6793 23.5833 39.6089 23.7014C39.5384 23.8195 39.438 23.9169 39.3177 23.9837L17.2969 36.2337V25.781L39.7188 13.3759V23.311Z" fill="#1B70EF"/>
</g>
<defs>
<clipPath id="clip0_53_294">
<rect width="41" height="41" fill="white"/>
</clipPath>
</defs>
</svg>
