<svg width="41" height="41" viewBox="0 0 41 41" fill="none" xmlns="http://www.w3.org/2000/svg">
<g clip-path="url(#clip0_53_292)">
<path d="M39.991 11.1683L26.1199 2.86357C25.8095 2.67972 25.458 2.57668 25.0975 2.56386C24.737 2.55105 24.3791 2.62887 24.0564 2.79021L1.14159 14.3714C0.799347 14.5411 0.511195 14.8028 0.309526 15.1272C0.107857 15.4516 0.000665933 15.8258 0 16.2078L0 26.2185C0.000462393 26.5623 0.0873978 26.9004 0.252803 27.2018C0.418209 27.5032 0.656769 27.7581 0.946523 27.9431C3.44176 29.5558 14.4285 36.7799 15.4407 37.4368C15.7706 37.6401 16.1481 37.7533 16.5354 37.7653C16.9228 37.7772 17.3065 37.6873 17.6483 37.5047L39.9436 25.1022C40.2625 24.9238 40.5283 24.664 40.7139 24.3492C40.8995 24.0345 40.9982 23.6761 41 23.3107V12.9316C40.9976 12.5758 40.9034 12.2266 40.7267 11.9177C40.5499 11.6088 40.2966 11.3507 39.991 11.1683ZM16.0156 36.2821C14.9801 35.6091 4.14132 28.4825 1.64192 26.8668C1.53226 26.7977 1.44174 26.7021 1.37872 26.5888C1.31569 26.4755 1.28217 26.3482 1.28125 26.2185V16.6348L16.0156 25.7371V36.2821ZM39.7188 23.311C39.7172 23.4486 39.6793 23.5833 39.6089 23.7014C39.5384 23.8195 39.438 23.9169 39.3177 23.9837L17.2969 36.2337V25.781L39.7188 13.3759V23.311ZM10.2109 37.2696L4.38444 33.2913C4.52467 33.2449 4.64457 33.1515 4.72381 33.0268C4.80306 32.9022 4.8368 32.754 4.81932 32.6073C4.80183 32.4606 4.73419 32.3245 4.62786 32.222C4.52153 32.1194 4.38303 32.0568 4.23581 32.0447L2.15762 31.872C2.04475 31.8626 1.93139 31.8833 1.82912 31.932C1.72685 31.9807 1.63931 32.0556 1.57543 32.1492C1.51156 32.2427 1.47362 32.3515 1.46549 32.4645C1.45737 32.5775 1.47934 32.6906 1.52917 32.7923L2.44527 34.6642C2.52449 34.8125 2.65698 34.9252 2.81604 34.9798C2.97509 35.0343 3.14889 35.0265 3.30242 34.9579C3.41528 34.9027 3.50941 34.8155 3.57308 34.7071C3.63676 34.5988 3.66717 34.4742 3.66053 34.3487L9.48862 38.3279C9.62896 38.4237 9.8016 38.4598 9.96857 38.4283C10.1355 38.3968 10.2831 38.3003 10.3789 38.1599C10.4747 38.0196 10.5108 37.8469 10.4793 37.68C10.4478 37.513 10.3513 37.3654 10.2109 37.2696Z" fill="#1B70EF"/>
</g>
<defs>
<clipPath id="clip0_53_292">
<rect width="41" height="41" fill="white"/>
</clipPath>
</defs>
</svg>
