<svg width="41" height="41" viewBox="0 0 41 41" fill="none" xmlns="http://www.w3.org/2000/svg">
<g clip-path="url(#clip0_53_290)">
<path d="M39.991 11.1683L26.1199 2.86357C25.8095 2.67972 25.458 2.57668 25.0975 2.56386C24.737 2.55105 24.3791 2.62887 24.0564 2.79021L1.14159 14.3714C0.799347 14.5411 0.511195 14.8028 0.309526 15.1272C0.107857 15.4516 0.000665933 15.8258 0 16.2078L0 26.2185C0.000462393 26.5623 0.0873978 26.9004 0.252803 27.2018C0.418209 27.5032 0.656769 27.7581 0.946523 27.9431C3.44176 29.5558 14.4285 36.7799 15.4407 37.4368C15.7706 37.6401 16.1481 37.7533 16.5354 37.7653C16.9228 37.7772 17.3065 37.6873 17.6483 37.5047L39.9436 25.1022C40.2625 24.9238 40.5283 24.664 40.7139 24.3492C40.8995 24.0345 40.9982 23.6761 41 23.3107V12.9316C40.9976 12.5758 40.9034 12.2266 40.7267 11.9177C40.5499 11.6088 40.2966 11.3507 39.991 11.1683ZM16.0156 36.2821C14.9801 35.6091 4.14132 28.4825 1.64192 26.8668C1.53226 26.7977 1.44174 26.7021 1.37872 26.5888C1.31569 26.4755 1.28217 26.3482 1.28125 26.2185V16.6348L16.0156 25.7371V36.2821ZM39.7188 23.311C39.7172 23.4486 39.6793 23.5833 39.6089 23.7014C39.5384 23.8195 39.438 23.9169 39.3177 23.9837L17.2969 36.2337V25.781L39.7188 13.3759V23.311ZM35.8305 30.7051L33.4736 30.6725C33.3037 30.6701 33.1398 30.7354 33.018 30.8539C32.8963 30.9724 32.8265 31.1344 32.8242 31.3043C32.8218 31.4742 32.8871 31.6381 33.0056 31.7598C33.1241 31.8816 33.2861 31.9514 33.456 31.9537L33.4948 31.9543L26.8528 35.793C26.7057 35.878 26.5984 36.0179 26.5545 36.182C26.5106 36.3461 26.5336 36.521 26.6186 36.6681C26.7076 36.8108 26.8475 36.9144 27.0099 36.9579C27.1724 37.0014 27.3453 36.9815 27.4937 36.9022L34.1594 33.0501L34.1219 33.1187C34.0404 33.2678 34.0214 33.4432 34.0691 33.6063C34.1169 33.7693 34.2275 33.9068 34.3766 33.9883C34.5257 34.0699 34.701 34.0889 34.8641 34.0411C35.0272 33.9934 35.1647 33.8828 35.2462 33.7337L36.3837 31.6533C36.4367 31.5564 36.4638 31.4474 36.4623 31.3369C36.4607 31.2265 36.4307 31.1183 36.375 31.0229C36.3194 30.9274 36.24 30.848 36.1445 30.7924C36.0491 30.7367 35.9409 30.7066 35.8305 30.7051Z" fill="#1B70EF"/>
</g>
<defs>
<clipPath id="clip0_53_290">
<rect width="41" height="41" fill="white"/>
</clipPath>
</defs>
</svg>
