<svg width="41" height="41" viewBox="0 0 41 41" fill="none" xmlns="http://www.w3.org/2000/svg">
<g clip-path="url(#clip0_53_296)">
<path d="M39.991 11.1683L26.1199 2.86357C25.8095 2.67972 25.458 2.57668 25.0975 2.56386C24.737 2.55105 24.3791 2.62887 24.0564 2.79021L1.14159 14.3714C0.799347 14.5411 0.511195 14.8028 0.309526 15.1272C0.107857 15.4516 0.000665933 15.8258 0 16.2078L0 26.2185C0.000462393 26.5623 0.0873978 26.9004 0.252803 27.2018C0.418209 27.5032 0.656769 27.7581 0.946523 27.9431C3.44176 29.5558 14.4285 36.7799 15.4407 37.4368C15.7706 37.6401 16.1481 37.7533 16.5354 37.7653C16.9228 37.7772 17.3065 37.6873 17.6483 37.5047L39.9436 25.1022C40.2625 24.9238 40.5283 24.664 40.7139 24.3492C40.8995 24.0345 40.9982 23.6761 41 23.3107V12.9316C40.9976 12.5758 40.9034 12.2266 40.7267 11.9177C40.5499 11.6088 40.2966 11.3507 39.991 11.1683ZM16.0156 36.2821C14.9801 35.6091 4.14132 28.4825 1.64192 26.8668C1.53226 26.7977 1.44174 26.7021 1.37872 26.5888C1.31569 26.4755 1.28217 26.3482 1.28125 26.2185V16.6348L16.0156 25.7371V36.2821ZM39.7188 23.311C39.7172 23.4486 39.6793 23.5833 39.6089 23.7014C39.5384 23.8195 39.438 23.9169 39.3177 23.9837L17.2969 36.2337V25.781L39.7188 13.3759V23.311Z" fill="#1B70EF"/>
</g>
<defs>
<clipPath id="clip0_53_296">
<rect width="41" height="41" fill="white"/>
</clipPath>
</defs>
</svg>
