<svg xmlns="http://www.w3.org/2000/svg" width="16" height="16" viewBox="0 0 16 16" fill="none">
  <path d="M15.6191 16C15.5216 16 15.424 15.9629 15.3498 15.8882L10.969 11.5076C9.80386 12.5463 8.26957 13.179 6.58957 13.179C2.95605 13.179 4.673e-05 10.223 4.673e-05 6.58952C4.673e-05 2.956 2.95624 0 6.58957 0C10.2229 0 13.1791 2.95619 13.1791 6.58952C13.1791 8.26952 12.5463 9.80381 11.5077 10.969L15.8884 15.3497C16.0372 15.4983 16.0372 15.7396 15.8884 15.8882C15.8141 15.9629 15.7166 16 15.6191 16ZM6.58957 0.761905C3.37624 0.761905 0.761951 3.37619 0.761951 6.58952C0.761951 9.80286 3.37624 12.4171 6.58957 12.4171C9.80291 12.4171 12.4172 9.80305 12.4172 6.58952C12.4172 3.376 9.8031 0.761905 6.58957 0.761905Z" fill="black"/>
</svg>