<svg width="20" height="21" viewBox="0 0 20 21" fill="none" xmlns="http://www.w3.org/2000/svg">
<path d="M9.70777 2.53125C8.1317 2.53125 6.59102 2.99861 5.28057 3.87423C3.97011 4.74984 2.94874 5.99439 2.3456 7.45049C1.74247 8.90659 1.58466 10.5088 1.89213 12.0546C2.19961 13.6004 2.95856 15.0203 4.07301 16.1348C5.18746 17.2492 6.60736 18.0082 8.15314 18.3156C9.69893 18.6231 11.3012 18.4653 12.7573 17.8622C14.2134 17.259 15.4579 16.2377 16.3335 14.9272C17.2092 13.6167 17.6765 12.0761 17.6765 10.5C17.674 8.38732 16.8337 6.36188 15.3398 4.86798C13.8459 3.37409 11.8204 2.53373 9.70777 2.53125ZM9.70777 17.5312C8.31712 17.5312 6.9577 17.1189 5.80141 16.3463C4.64513 15.5737 3.74392 14.4755 3.21174 13.1907C2.67956 11.906 2.54032 10.4922 2.81162 9.12827C3.08292 7.76434 3.75258 6.51149 4.73592 5.52816C5.71926 4.54482 6.97211 3.87516 8.33604 3.60385C9.69997 3.33255 11.1137 3.47179 12.3985 4.00397C13.6833 4.53615 14.7814 5.43736 15.554 6.59365C16.3266 7.74993 16.739 9.10935 16.739 10.5C16.7369 12.3642 15.9955 14.1514 14.6773 15.4696C13.3592 16.7877 11.5719 17.5292 9.70777 17.5312ZM14.5515 10.5C14.5515 10.6243 14.5021 10.7435 14.4142 10.8315C14.3263 10.9194 14.2071 10.9688 14.0828 10.9688H9.70777C9.58345 10.9688 9.46422 10.9194 9.37631 10.8315C9.2884 10.7435 9.23902 10.6243 9.23902 10.5V6.125C9.23902 6.00068 9.2884 5.88145 9.37631 5.79354C9.46422 5.70564 9.58345 5.65625 9.70777 5.65625C9.83209 5.65625 9.95132 5.70564 10.0392 5.79354C10.1271 5.88145 10.1765 6.00068 10.1765 6.125V10.0312H14.0828C14.2071 10.0312 14.3263 10.0806 14.4142 10.1685C14.5021 10.2565 14.5515 10.3757 14.5515 10.5Z" fill="white"/>
</svg>
