<svg xmlns="http://www.w3.org/2000/svg" width="24" height="24" viewBox="0 0 24 24" fill="none">
  <g clip-path="url(#clip0_49_125)">
    <path d="M20.4124 3.48769C18.1662 1.23993 15.1794 0.00137141 11.9971 0C5.43969 0 0.103236 5.33475 0.10061 11.8919C0.0998462 13.9879 0.647509 16.034 1.68847 17.8375L0.000732422 24L6.30722 22.3464C8.04478 23.294 10.0012 23.7933 11.992 23.7941H11.9971H11.9971C18.5535 23.7941 23.8908 18.4584 23.8936 11.9016C23.8947 8.72364 22.6583 5.73561 20.4124 3.48769ZM11.9971 21.7855H11.9933C10.2187 21.7846 8.47852 21.3081 6.96064 20.4075L6.59941 20.1933L2.85701 21.1745L3.85618 17.527L3.62083 17.1531C2.63096 15.5792 2.10839 13.7603 2.10914 11.8927C2.11131 6.44257 6.54677 2.00867 12.0009 2.00867C14.6421 2.00976 17.1245 3.03926 18.9914 4.90753C20.8583 6.77579 21.8857 9.25937 21.8849 11.9007C21.8826 17.351 17.447 21.7855 11.9971 21.7855Z" fill="#E0E0E0"/>
    <path d="M0.546875 23.3162L2.15752 17.4352C1.16385 15.714 0.641306 13.7613 0.641933 11.7614C0.644539 5.50394 5.73727 0.413025 11.9946 0.413025C15.0317 0.414396 17.8821 1.59632 20.0252 3.74146C22.1688 5.88658 23.3486 8.73792 23.3473 11.7703C23.3447 18.028 18.2517 23.1194 11.9951 23.1194C11.9946 23.1194 11.9954 23.1194 11.9951 23.1194H11.99C10.0901 23.1187 8.22325 22.6418 6.56517 21.7381L0.546875 23.3162Z" fill="url(#paint0_linear_49_125)"/>
    <path fill-rule="evenodd" clip-rule="evenodd" d="M9.05738 6.84323C8.83729 6.35389 8.60556 6.34409 8.39616 6.33553C8.22489 6.32818 8.02882 6.32863 7.83306 6.32863C7.63714 6.32863 7.31878 6.40226 7.04955 6.69629C6.78017 6.99032 6.021 7.70112 6.021 9.14677C6.021 10.5926 7.07404 11.9895 7.22082 12.1858C7.36776 12.3817 9.25361 15.4432 12.2402 16.621C14.7224 17.5998 15.2275 17.4051 15.7663 17.3561C16.305 17.3071 17.5047 16.6454 17.7496 15.9593C17.9945 15.2732 17.9945 14.6852 17.921 14.5623C17.8476 14.4398 17.6517 14.3664 17.3578 14.2194C17.0639 14.0725 15.6193 13.3615 15.35 13.2636C15.0806 13.1656 14.8847 13.1166 14.6887 13.4108C14.4928 13.7047 13.93 14.3664 13.7586 14.5623C13.5872 14.7587 13.4157 14.7831 13.1219 14.6362C12.828 14.4888 11.8816 14.1789 10.7589 13.1779C9.88544 12.3991 9.29569 11.4373 9.12426 11.1431C8.95284 10.8492 9.10589 10.69 9.25329 10.5435C9.38522 10.4119 9.54717 10.2005 9.6941 10.029C9.84073 9.85737 9.88971 9.73492 9.98766 9.53901C10.0856 9.34278 10.0366 9.17122 9.96317 9.02428C9.88971 8.87734 9.31865 7.42423 9.05738 6.84323Z" fill="white"/>
    <path d="M20.3153 3.4499C18.0948 1.22794 15.1423 0.00361879 11.9967 0.00222778C5.51446 0.00222778 0.239267 5.27573 0.236661 11.7576C0.235897 13.8296 0.777271 15.8521 1.80628 17.635L0.137939 23.7267L6.37204 22.092C8.08967 23.0287 10.0236 23.5224 11.9916 23.5231H11.9966H11.9967C18.4778 23.5231 23.7537 18.2487 23.7565 11.7671C23.7576 8.62574 22.5354 5.67201 20.3153 3.4499ZM11.9967 21.5377H11.9928C10.2386 21.5367 8.51839 21.0658 7.01795 20.1754L6.66086 19.9638L2.96142 20.9337L3.94911 17.3281L3.71646 16.9584C2.73796 15.4026 2.22139 13.6046 2.22215 11.7584C2.22429 6.37088 6.60882 1.98787 12.0003 1.98787C14.6112 1.98895 17.0651 3.00664 18.9107 4.85346C20.7561 6.70028 21.7716 9.15534 21.7709 11.7664C21.7686 17.154 17.3839 21.5377 11.9967 21.5377Z" fill="white"/>
  </g>
  <defs>
    <linearGradient id="paint0_linear_49_125" x1="11.9471" y1="23.3162" x2="11.9471" y2="0.413063" gradientUnits="userSpaceOnUse">
      <stop stop-color="#20B038"/>
      <stop offset="1" stop-color="#60D66A"/>
    </linearGradient>
    <clipPath id="clip0_49_125">
      <rect width="23.8944" height="24" fill="white"/>
    </clipPath>
  </defs>
</svg>